<svg width="512" height="512" viewBox="0 0 512 512" fill="none" xmlns="http://www.w3.org/2000/svg">
<circle cx="256" cy="256" r="256" fill="#F2EDF8"/>
<path d="M256 0C114.509 0 0 114.497 0 256C0 397.491 114.497 512 256 512C397.491 512 512 397.503 512 256C512 114.509 397.503 0 256 0ZM256 497C123.112 497 14.9999 388.887 14.9999 256C14.9999 123.113 123.112 14.9999 256 14.9999C388.888 14.9999 497 123.113 497 256C497 388.887 388.888 497 256 497Z" fill="#480486"/>
<path d="M241.729 82.845C227.218 108.624 195.978 160.28 149.804 216.593C88.6362 291.197 125.852 404.06 219.538 427.085C243.392 432.947 268.608 432.948 292.464 427.085C320.436 420.211 344.591 404.988 362.461 383.048C390.893 368.501 409.72 340.887 412.876 308.996C413.283 304.878 413.752 300.59 414.27 296.249C414.76 292.136 411.824 288.404 407.711 287.914C403.597 287.421 399.866 290.36 399.375 294.473C398.846 298.913 398.365 303.303 397.948 307.519C391.888 368.768 319.27 402.289 267.524 358.213L284.339 341.398C298.819 353.289 315.728 358.553 333.024 356.994C337.15 356.621 340.192 352.975 339.82 348.85C339.448 344.725 335.793 341.689 331.676 342.055C319.134 343.187 306.451 339.676 295.006 330.731L316.574 309.163C328.592 318.658 342.465 322.796 356.617 321.521C360.743 321.148 363.785 317.502 363.413 313.377C363.041 309.252 359.383 306.217 355.269 306.582C345.801 307.44 336.214 304.993 327.287 298.45L348.521 277.216C357.327 283.591 367.045 286.064 376.682 285.196C380.808 284.823 383.85 281.177 383.478 277.052C383.106 272.927 379.454 269.892 375.334 270.257C369.946 270.743 364.429 269.552 359.318 266.42L382.965 242.773C385.894 239.844 385.894 235.095 382.965 232.167C380.035 229.238 375.287 229.238 372.358 232.167L348.712 255.813C345.763 251.013 344.357 245.523 344.874 239.798C345.246 235.673 342.204 232.027 338.079 231.653C333.955 231.28 330.308 234.322 329.934 238.448C329.053 248.205 331.614 257.91 337.914 266.61L316.68 287.844C310.113 278.882 307.697 269.287 308.548 259.862C308.92 255.737 305.878 252.091 301.752 251.718C297.608 251.343 293.98 254.389 293.608 258.513C292.35 272.463 296.351 286.387 305.966 298.557L284.399 320.122C275.426 308.639 271.946 295.952 273.074 283.452C273.446 279.327 270.404 275.681 266.278 275.308C262.153 274.941 258.506 277.978 258.134 282.103C256.592 299.187 261.71 316.149 273.731 330.789L256.916 347.603C233.891 320.571 231.582 287.156 245.097 260.143C257.217 235.914 280.586 219.853 307.608 217.18C357.006 212.292 397.333 202.623 418.247 196.881C414.432 210.777 409.154 232.251 404.532 259.086C403.83 263.168 406.569 267.047 410.651 267.75C414.728 268.453 418.612 265.714 419.315 261.632C424.089 233.904 429.569 212.07 433.325 198.639C434.652 193.894 433.313 188.783 429.831 185.301C426.348 181.816 421.229 180.477 416.486 181.804C402.427 185.735 377.753 191.944 346.56 196.981C308.512 147.951 282.52 104.604 270.274 82.85C267.331 77.621 261.994 74.5 255.997 74.5C250.004 74.501 244.67 77.621 241.729 82.845ZM255.997 89.5009C256.533 89.5009 256.939 89.7389 257.203 90.2089C269.094 111.331 293.72 152.47 329.57 199.501C321.369 200.614 313.16 201.56 306.132 202.255C273.953 205.438 246.123 224.57 231.683 253.433C215.551 285.679 218.249 326.055 246.284 358.239L224.461 380.062C221.532 382.991 221.532 387.74 224.461 390.668C227.391 393.597 232.138 393.597 235.068 390.668L256.889 368.846C278.888 388.009 305.178 395.778 331.029 392.677C318.682 401.962 304.45 408.693 288.882 412.519C267.37 417.806 244.63 417.806 223.118 412.519C140.335 392.174 107.108 292.325 161.403 226.104C208.3 168.91 240.049 116.409 254.799 90.2039C255.062 89.7369 255.465 89.5009 255.997 89.5009Z" fill="#480486"/>
<path d="M274.094 31.0424C269.956 30.7154 266.351 33.7964 266.024 37.9253C265.696 42.0543 268.778 45.6673 272.907 45.9953C381.567 54.6203 466.682 146.864 466.682 256C466.682 372.171 372.171 466.682 256 466.682C139.83 466.682 45.3183 372.171 45.3183 256C45.3183 146.864 130.434 54.6193 239.093 45.9953C243.222 45.6673 246.304 42.0543 245.976 37.9253C245.649 33.7964 242.068 30.7164 237.906 31.0424C121.056 40.3163 30.3184 138.117 30.3184 256C30.3184 380.735 131.255 481.682 256 481.682C380.736 481.682 481.682 380.745 481.682 256C481.682 137.914 390.76 40.3013 274.094 31.0424Z" fill="#480486"/>
</svg>
