<svg width="512" height="512" viewBox="0 0 512 512" fill="none" xmlns="http://www.w3.org/2000/svg">
<circle cx="256" cy="256" r="256" fill="#F2EDF8"/>
<path d="M256 0C114.509 0 0 114.497 0 256C0 397.491 114.497 512 256 512C397.491 512 512 397.503 512 256C512 114.509 397.503 0 256 0ZM256 497C123.112 497 14.9999 388.887 14.9999 256C14.9999 123.113 123.112 14.9999 256 14.9999C388.888 14.9999 497 123.113 497 256C497 388.887 388.888 497 256 497V497Z" fill="#480486"/>
<g clip-path="url(#clip0)">
<path d="M387.129 199.388C383.765 197.976 379.893 199.558 378.481 202.923L336.281 303.476C333.063 311.144 345.159 316.467 348.465 308.59L390.665 208.036C392.076 204.671 390.493 200.8 387.129 199.388V199.388Z" fill="#480486"/>
<path d="M343.277 198.872C333.203 198.872 325.009 207.915 325.009 219.03C325.009 230.144 333.204 239.187 343.277 239.187C353.349 239.187 361.545 230.144 361.545 219.03C361.545 207.915 353.35 198.872 343.277 198.872V198.872ZM343.277 225.975C340.536 225.975 338.221 222.795 338.221 219.031C338.221 215.266 340.536 212.086 343.277 212.086C346.017 212.086 348.332 215.266 348.332 219.031C348.332 222.795 346.018 225.975 343.277 225.975V225.975Z" fill="#480486"/>
<path d="M365.4 292.481C365.4 303.597 373.595 312.639 383.668 312.639C393.74 312.639 401.935 303.596 401.935 292.481C401.935 281.367 393.74 272.324 383.668 272.324C373.595 272.324 365.4 281.367 365.4 292.481ZM388.722 292.481C388.722 296.246 386.407 299.426 383.668 299.426C380.927 299.426 378.612 296.246 378.612 292.481C378.612 288.717 380.927 285.537 383.668 285.537C386.407 285.537 388.722 288.717 388.722 292.481Z" fill="#480486"/>
<path d="M138.579 315.951C142.228 315.951 145.186 312.993 145.186 309.344V202.167C145.186 198.519 142.228 195.561 138.579 195.561H115.671C112.022 195.561 109.064 198.519 109.064 202.167C109.064 205.816 112.022 208.774 115.671 208.774H131.972V309.344C131.973 312.993 134.931 315.951 138.579 315.951V315.951Z" fill="#480486"/>
<path d="M159.297 230.974V280.539C159.297 301.271 176.164 318.138 196.896 318.138C217.629 318.138 234.496 301.271 234.496 280.539V230.974C234.496 210.241 217.629 193.374 196.896 193.374C176.164 193.374 159.297 210.242 159.297 230.974ZM172.51 230.974C172.51 217.526 183.449 206.587 196.896 206.587C210.344 206.587 221.283 217.526 221.283 230.974V280.539C221.283 293.986 210.344 304.925 196.896 304.925C183.449 304.925 172.51 293.986 172.51 280.539V230.974Z" fill="#480486"/>
<path d="M241.886 230.974V280.539C241.886 301.271 258.753 318.138 279.486 318.138C300.219 318.138 317.085 301.271 317.085 280.539V230.974C317.085 210.241 300.219 193.374 279.486 193.374C258.753 193.374 241.886 210.242 241.886 230.974V230.974ZM303.872 230.974V280.539C303.872 293.986 292.932 304.925 279.485 304.925C266.038 304.925 255.098 293.986 255.098 280.539V230.974C255.098 217.526 266.038 206.587 279.485 206.587C292.932 206.587 303.872 217.527 303.872 230.974Z" fill="#480486"/>
<path d="M414.953 96.3032C372.361 53.7119 315.733 30.2563 255.5 30.2563C195.267 30.2563 138.639 53.7119 96.0468 96.3032C53.4564 138.895 30 195.523 30 255.756C30 313.321 51.6903 368.123 91.0744 410.067C130.276 451.816 183.239 476.911 240.205 480.73C240.355 480.739 240.504 480.745 240.653 480.745C244.101 480.745 247.004 478.069 247.238 474.579C247.482 470.939 244.729 467.79 241.088 467.546C187.469 463.952 137.614 440.326 100.707 401.022C63.6312 361.538 43.2129 309.949 43.2129 255.756C43.2129 199.052 65.2943 145.742 105.39 105.646C145.486 65.5506 198.796 43.4692 255.5 43.4692C312.204 43.4692 365.514 65.5506 405.609 105.646C445.706 145.742 467.787 199.052 467.787 255.756C467.787 309.062 447.948 360.028 411.924 399.265C376.12 438.262 327.486 462.369 274.979 467.145C271.346 467.475 268.668 470.689 268.999 474.322C269.329 477.956 272.535 480.63 276.176 480.303C331.96 475.23 383.625 449.623 421.656 408.201C459.925 366.52 481 312.381 481 255.756C481 195.523 457.544 138.895 414.953 96.3032V96.3032Z" fill="#480486"/>
<path d="M181.431 147.738C176.75 154.582 187.302 162.559 192.337 155.197C195.654 150.347 199.337 145.921 203.289 141.958C206.055 147.533 210.13 152.451 215.691 155.971C222.909 160.54 229.976 149.376 222.758 144.807C218.467 142.09 215.52 137.828 213.785 132.973C229.349 121.695 247.4 116.879 263.714 120.586C272.043 122.488 274.971 109.595 266.642 107.702C247.867 103.435 228.231 108.305 212.039 118.207C212.438 113.97 213.724 110.133 215.585 106.364C225.759 86.8781 251.269 81.9612 270.076 88.4698C292.349 96.1976 306.853 115.599 313.983 137.458C295.841 131.881 275.769 140.746 260.198 147.625C250.113 152.356 256.581 162.441 265.537 159.711C283.977 151.564 304.877 142.33 319.704 155.643C324.277 159.748 331.699 155.612 330.621 149.557C327.668 133.158 321.534 117.926 312.881 105.511C302.841 91.1062 289.513 80.89 274.335 75.9634C261.534 71.5476 247.466 71.2975 234.713 75.2587C220.987 79.5229 210.022 88.4231 203.835 100.321C199.482 108.792 197.897 118.245 199.098 127.739C192.553 133.461 186.604 140.175 181.431 147.738V147.738Z" fill="#480486"/>
<path d="M226.622 431.042C253.063 444.668 291.372 440.261 306.481 412.092C311.501 402.733 313.418 392.881 312.184 383.522C318.616 377.854 324.471 371.229 329.57 363.775C334.393 356.725 323.489 349.268 318.664 356.315C315.349 361.161 311.67 365.582 307.722 369.542C302.659 360.04 293.983 352.947 282.881 349.355C264.878 343.528 249.16 349.976 235.295 355.665C219.001 362.351 206.131 367.63 190.992 355.61C186.273 351.864 179.228 356.165 180.405 362.074C184.973 385.027 196.7 415.622 226.622 431.042V431.042ZM240.31 367.889C253.219 362.593 265.413 357.591 278.814 361.926C287.603 364.77 294.168 370.62 297.298 378.398C297.306 378.417 297.313 378.438 297.321 378.458C281.731 389.791 263.635 394.639 247.286 390.925C238.957 389.031 236.028 401.916 244.358 403.809C263.158 408.081 282.828 403.19 299.034 393.258C298.386 397.703 296.988 401.899 294.836 405.846C283.403 427.161 253.463 430.009 232.673 419.296C213.163 409.241 202.718 391.013 197.133 373.97C212.758 379.191 227.207 373.264 240.31 367.889V367.889Z" fill="#480486"/>
</g>
<defs>
<clipPath id="clip0">
<rect width="451" height="451" fill="white" transform="translate(30 30)"/>
</clipPath>
</defs>
</svg>
