<svg xmlns="http://www.w3.org/2000/svg" width="629" height="62" fill="none" viewBox="0 0 629 62">
  <path fill="#000" d="M32.448 31.935c-4.776-.955-8.681-1.995-11.715-3.118-2.978-1.18-5.338-2.754-7.08-4.72-1.685-2.023-2.528-4.608-2.528-7.754 0-3.259.843-6.124 2.528-8.596 1.742-2.473 4.158-4.383 7.248-5.732C24.048.667 27.671-.007 31.773-.007c3.934 0 7.53.843 10.788 2.528 3.315 1.63 5.928 3.933 7.838 6.911 1.91 2.978 2.866 6.377 2.866 10.198h-3.118c0-3.315-.815-6.237-2.445-8.765-1.629-2.529-3.848-4.467-6.658-5.815-2.809-1.405-5.927-2.107-9.355-2.107-3.034 0-5.871.477-8.512 1.432-2.64.955-4.804 2.416-6.49 4.383-1.629 1.966-2.444 4.439-2.444 7.416 0 2.697.787 4.86 2.36 6.49 1.573 1.573 3.624 2.781 6.153 3.624 2.528.843 6.068 1.742 10.619 2.697 4.607.955 8.175 1.882 10.703 2.781 2.585.843 4.748 2.276 6.49 4.299 1.798 2.022 2.697 4.86 2.697 8.512s-.983 6.742-2.95 9.27c-1.91 2.473-4.467 4.327-7.67 5.563-3.202 1.236-6.686 1.854-10.45 1.854-4.664 0-8.765-.87-12.305-2.613-3.54-1.741-6.265-4.185-8.175-7.332-1.854-3.203-2.781-6.855-2.781-10.956h3.118c0 3.596.787 6.742 2.36 9.44 1.63 2.696 3.961 4.803 6.995 6.32 3.034 1.461 6.63 2.191 10.788 2.191 5.17 0 9.44-1.236 12.81-3.708 3.428-2.472 5.142-5.843 5.142-10.114 0-2.921-.73-5.169-2.192-6.742-1.46-1.573-3.315-2.697-5.562-3.371-2.191-.73-5.507-1.545-9.945-2.444Zm31.54-30.678h3.371l20.48 36.24 20.396-36.24h3.118v58.659H63.988V1.257Zm3.118 55.625h41.129V7.578L89.272 40.953h-2.95L67.106 7.073v49.809ZM176.017 60h-55.288L148.372.077 176.016 60Zm-50.4-3.118h45.512L148.372 7.494l-22.756 49.388ZM230.817 60h-45.089V1.341h22.84c4.888 0 8.877.871 11.967 2.613 3.034 1.685 5.394 3.99 7.08 6.91 1.685 2.923 2.528 6.153 2.528 9.693 0 4.383-1.348 8.316-4.045 11.8-2.697 3.427-6.096 5.702-10.198 6.826L230.817 60Zm-39.78-55.54 22.924 32.026c3.765-.787 6.883-2.669 9.356-5.647 2.472-2.978 3.708-6.405 3.708-10.282 0-3.09-.759-5.9-2.276-8.428-1.517-2.528-3.652-4.467-6.405-5.815-2.472-1.236-5.703-1.854-9.692-1.854h-17.615Zm-2.191 2.022V36.74h21.66l-21.66-30.257Zm0 50.4h36.072l-12.305-17.11-2.613.085h-21.154v17.025Zm93.655-55.54V4.46h-22.166V60h-3.034V4.46h-22.166V1.34h47.366Zm38.808 36.24c0 3.708.927 7.135 2.781 10.282 1.911 3.146 4.439 5.647 7.585 7.5 3.203 1.855 6.658 2.782 10.367 2.782 3.82 0 7.276-.759 10.366-2.276s5.507-3.624 7.248-6.32c1.798-2.698 2.725-5.732 2.782-9.103h3.034c0 3.877-1.04 7.417-3.119 10.62-2.022 3.146-4.832 5.646-8.428 7.5-3.539 1.798-7.501 2.697-11.883 2.697-4.27 0-8.232-1.067-11.884-3.202-3.652-2.136-6.545-5.001-8.68-8.597-2.136-3.652-3.203-7.613-3.203-11.883V23.76c0-4.27 1.039-8.204 3.118-11.8 2.135-3.652 5.001-6.545 8.597-8.68 3.652-2.135 7.613-3.203 11.883-3.203 4.327 0 8.26.927 11.799 2.781 3.596 1.798 6.434 4.299 8.513 7.501 2.079 3.147 3.118 6.658 3.118 10.535h-3.034c-.056-3.371-.983-6.405-2.781-9.102s-4.242-4.804-7.333-6.321c-3.034-1.517-6.461-2.276-10.282-2.276-3.708 0-7.135.927-10.282 2.782a20.87 20.87 0 0 0-7.501 7.5c-1.854 3.147-2.781 6.574-2.781 10.283v13.822ZM374.509 60V1.341h3.119V29.07h38.937V1.341h3.118V60h-3.118V32.188h-38.937V60h-3.119ZM452.741.077c4.382 0 8.428 1.096 12.136 3.287 3.708 2.135 6.63 5.057 8.765 8.765 2.191 3.708 3.287 7.754 3.287 12.136v12.81c0 4.383-1.096 8.429-3.287 12.137-2.135 3.708-5.057 6.658-8.765 8.85-3.708 2.135-7.754 3.202-12.136 3.202-4.383 0-8.428-1.067-12.137-3.202a24.736 24.736 0 0 1-8.849-8.85c-2.135-3.708-3.203-7.754-3.203-12.136v-12.81c0-4.383 1.068-8.429 3.203-12.137 2.191-3.708 5.141-6.63 8.849-8.765 3.709-2.191 7.754-3.287 12.137-3.287Zm-21.07 36.999c0 3.82.927 7.36 2.781 10.62a21.794 21.794 0 0 0 7.67 7.669c3.258 1.854 6.798 2.78 10.619 2.78 3.82 0 7.332-.926 10.535-2.78 3.259-1.91 5.815-4.467 7.669-7.67 1.911-3.259 2.866-6.798 2.866-10.62v-12.81c0-3.82-.955-7.332-2.866-10.535-1.854-3.258-4.41-5.815-7.669-7.67-3.203-1.91-6.715-2.865-10.535-2.865-3.821 0-7.361.956-10.619 2.866-3.203 1.854-5.76 4.41-7.67 7.67-1.854 3.202-2.781 6.714-2.781 10.534v12.81ZM518.162 1.34v3.12h-17.531v52.422h17.531V60h-38.011v-3.118h17.446V4.46h-17.446V1.34h38.011Zm7.183 36.24c0 3.709.927 7.136 2.781 10.283 1.911 3.146 4.439 5.647 7.586 7.5 3.202 1.855 6.658 2.782 10.366 2.782 3.821 0 7.276-.759 10.366-2.276 3.091-1.517 5.507-3.624 7.249-6.32 1.798-2.698 2.725-5.732 2.781-9.103h3.034c0 3.877-1.04 7.417-3.118 10.62-2.023 3.146-4.833 5.646-8.428 7.5-3.54 1.798-7.501 2.697-11.884 2.697-4.27 0-8.231-1.067-11.883-3.202-3.653-2.136-6.546-5.001-8.681-8.597-2.135-3.652-3.203-7.613-3.203-11.883V23.76c0-4.27 1.04-8.204 3.119-11.8 2.135-3.652 5-6.545 8.596-8.68 3.652-2.135 7.613-3.203 11.884-3.203 4.326 0 8.259.927 11.799 2.781 3.596 1.798 6.433 4.299 8.512 7.501 2.079 3.147 3.118 6.658 3.118 10.535h-3.034c-.056-3.371-.983-6.405-2.781-9.102s-4.242-4.804-7.332-6.321c-3.034-1.517-6.462-2.276-10.282-2.276-3.709 0-7.136.927-10.283 2.782a20.877 20.877 0 0 0-7.501 7.5c-1.854 3.147-2.781 6.574-2.781 10.283v13.822Zm52.189-36.24h41.297v3.12h-38.178v23.767h33.206v3.118h-33.206v25.537h38.178V60h-41.297V1.341Z"/>
</svg>
