<svg width="512" height="512" viewBox="0 0 512 512" fill="none" xmlns="http://www.w3.org/2000/svg">
<circle cx="256" cy="256" r="256" fill="#F2EDF8"/>
<path d="M437.02 74.98C388.667 26.629 324.38 0 256 0C187.62 0 123.333 26.629 74.98 74.98C26.629 123.333 0 187.62 0 256C0 324.38 26.629 388.667 74.98 437.02C123.333 485.371 187.62 512 256 512C324.38 512 388.667 485.371 437.02 437.02C485.371 388.667 512 324.38 512 256C512 187.62 485.371 123.333 437.02 74.98V74.98ZM426.413 426.413C380.894 471.932 320.374 497 256 497C191.626 497 131.106 471.932 85.587 426.413C40.068 380.894 15 320.374 15 256C15 191.626 40.068 131.106 85.587 85.587C131.106 40.068 191.626 15 256 15C320.374 15 380.894 40.068 426.413 85.587C471.932 131.106 497 191.626 497 256C497 320.374 471.932 380.894 426.413 426.413Z" fill="#480486"/>
<path d="M134.02 217.141C141.808 217.141 149.318 219.434 155.741 223.773C159.174 226.092 163.836 225.189 166.155 221.756C168.474 218.324 167.571 213.662 164.139 211.343C155.227 205.322 144.812 202.14 134.021 202.14C104.323 202.14 80.162 226.301 80.162 255.999C80.162 285.697 104.323 309.858 134.021 309.858C162 309.858 181.54 287.71 181.54 255.999C181.54 251.857 178.182 248.499 174.04 248.499H146.304C142.162 248.499 138.804 251.857 138.804 255.999C138.804 260.141 142.162 263.499 146.304 263.499H166.105C163.316 286.477 147.632 294.858 134.021 294.858C112.594 294.858 95.162 277.426 95.162 255.999C95.162 234.572 112.593 217.141 134.02 217.141Z" fill="#480486"/>
<path d="M431.839 256C431.839 226.302 407.678 202.141 377.98 202.141C348.282 202.141 324.121 226.302 324.121 256C324.121 285.698 348.282 309.859 377.98 309.859C407.678 309.859 431.839 285.698 431.839 256V256ZM377.98 294.859C356.553 294.859 339.121 277.427 339.121 256C339.121 234.573 356.553 217.141 377.98 217.141C399.407 217.141 416.839 234.573 416.839 256C416.839 277.427 399.407 294.859 377.98 294.859Z" fill="#480486"/>
<path d="M414.346 97.654C372.051 55.358 315.815 32.064 256 32.064C202.387 32.064 150.485 51.362 109.857 86.402C106.72 89.107 106.371 93.843 109.076 96.98C111.781 100.117 116.517 100.466 119.654 97.761C157.56 65.069 205.981 47.064 256 47.064C315.966 47.064 370.103 72.466 408.242 113.064L292.536 214.128L291.713 209.82C290.843 205.553 287.2 202.402 282.852 202.156C278.487 201.908 274.529 204.633 273.185 208.775C273.158 208.86 273.131 208.946 273.106 209.033L264.73 238.415L245.156 255.512L231.419 208.951C231.393 208.862 231.365 208.773 231.336 208.685C229.949 204.556 225.941 201.873 221.6 202.166C217.254 202.457 213.643 205.647 212.804 210.011L205.418 250.935C204.682 255.011 207.391 258.912 211.467 259.647C215.544 260.385 219.444 257.675 220.18 253.599L223.51 235.145L232.723 266.372L93.883 387.645C64.629 351.688 47.064 305.859 47.064 256C47.064 205.981 65.069 157.56 97.762 119.653C100.467 116.516 100.117 111.78 96.981 109.075C93.844 106.37 89.109 106.72 86.403 109.856C51.362 150.485 32.064 202.387 32.064 256C32.064 315.815 55.357 372.051 97.653 414.346C139.949 456.642 196.184 479.935 255.999 479.935C309.613 479.935 361.514 460.637 402.143 425.597C405.28 422.892 405.629 418.156 402.924 415.019C400.218 411.882 395.483 411.532 392.346 414.238C354.44 446.93 306.018 464.935 255.999 464.935C196.033 464.935 141.896 439.533 103.757 398.935L237.394 282.21L243.543 303.054C243.569 303.143 243.597 303.231 243.626 303.319C244.941 307.236 248.592 309.86 252.72 309.86H252.77C256.919 309.839 260.567 307.173 261.847 303.227C261.875 303.141 261.901 303.055 261.926 302.968L281.273 235.103L294.257 303.044C295.034 307.112 298.964 309.78 303.031 309.002C307.1 308.224 309.767 304.296 308.99 300.227L295.797 231.197L418.116 124.356C447.37 160.313 464.935 206.141 464.935 256.001C464.935 306.02 446.931 354.442 414.238 392.348C411.533 395.485 411.883 400.221 415.019 402.926C416.436 404.148 418.179 404.746 419.914 404.746C422.02 404.746 424.114 403.864 425.597 402.144C460.637 361.516 479.935 309.614 479.935 256C479.936 196.185 456.642 139.949 414.346 97.654V97.654ZM252.633 280.854L249.829 271.348L257.171 264.935L252.633 280.854Z" fill="#480486"/>
</svg>
