<svg width="512" height="512" viewBox="0 0 512 512" fill="none" xmlns="http://www.w3.org/2000/svg">
<circle cx="256" cy="255.5" r="256" fill="#F2EDF8"/>
<path d="M256 0C114.509 0 0 114.497 0 256C0 397.491 114.497 512 256 512C397.491 512 512 397.503 512 256C512 114.509 397.503 0 256 0ZM256 497C123.112 497 14.9999 388.887 14.9999 256C14.9999 123.113 123.112 14.9999 256 14.9999C388.888 14.9999 497 123.113 497 256C497 388.887 388.888 497 256 497Z" fill="#480486"/>
<path d="M274.094 31.0424C269.956 30.7154 266.351 33.7964 266.024 37.9253C265.696 42.0543 268.778 45.6673 272.907 45.9953C381.567 54.6203 466.682 146.864 466.682 256C466.682 372.171 372.171 466.682 256 466.682C139.83 466.682 45.3183 372.171 45.3183 256C45.3183 146.864 130.434 54.6193 239.093 45.9953C243.222 45.6673 246.304 42.0543 245.976 37.9253C245.649 33.7964 242.068 30.7164 237.906 31.0424C121.056 40.3163 30.3184 138.117 30.3184 256C30.3184 380.735 131.255 481.682 256 481.682C380.736 481.682 481.682 380.745 481.682 256C481.682 137.914 390.76 40.3013 274.094 31.0424Z" fill="#480486"/>
<path d="M393.261 254.906C391.044 253.405 388.029 253.984 386.528 256.201L365.008 287.968C360.764 284.974 356.064 282.533 350.985 280.777L293.414 260.868C292.517 260.557 291.915 259.712 291.915 258.763V250.509C291.915 249.281 292.914 248.282 294.142 248.282H317.305C334.387 248.282 348.284 234.384 348.284 217.302V204.933C348.284 204.257 348.834 203.707 349.51 203.707H353.16C359.184 203.707 364.084 198.806 364.084 192.783C364.084 189.982 363.025 187.318 361.102 185.283L348.89 172.354C348.499 171.938 348.283 171.396 348.283 170.825V163.72C348.283 154.891 346.749 146.214 343.721 137.929C342.802 135.414 340.019 134.119 337.503 135.039C334.987 135.958 333.694 138.742 334.613 141.258C337.249 148.472 338.586 156.03 338.586 163.72V170.825C338.586 173.882 339.742 176.79 341.841 179.012L354.053 191.941C354.269 192.17 354.388 192.469 354.388 192.783C354.388 193.459 353.837 194.009 353.161 194.009H349.51C343.488 194.009 338.587 198.91 338.587 204.933V209.576H319.614C316.935 209.576 314.765 211.746 314.765 214.424C314.765 217.102 316.935 219.273 319.614 219.273H338.492C337.495 230.087 328.376 238.585 317.305 238.585H294.142C287.567 238.585 282.218 243.934 282.218 250.51V258.764C282.218 263.844 285.443 268.373 290.245 270.033L347.816 289.943C352.078 291.417 356.017 293.475 359.568 296L346.541 315.23H326.441C321.584 309.773 315.911 304.42 309.278 299.32C303.708 295.038 296.33 294.306 290.025 297.412C283.897 300.43 280.036 306.458 279.817 313.243L276.317 310.7C277.658 308.663 278.444 306.231 278.444 303.616C278.444 299.79 276.763 296.357 274.114 293.988V282.443C276.764 280.074 278.444 276.641 278.444 272.815C278.444 268.989 276.763 265.557 274.114 263.187V251.643C276.764 249.274 278.444 245.841 278.444 242.015C278.444 234.885 272.643 229.085 265.514 229.085H256.29C249.161 229.085 243.36 234.885 243.36 242.015C243.36 245.841 245.04 249.274 247.69 251.643V263.187C245.04 265.557 243.36 268.989 243.36 272.815C243.36 276.641 245.04 280.074 247.69 282.443V293.988C245.04 296.357 243.36 299.79 243.36 303.616C243.36 306.231 244.146 308.663 245.487 310.7L241.987 313.243C241.769 306.458 237.907 300.43 231.779 297.413C225.473 294.307 218.096 295.038 212.526 299.32C175.958 327.437 168.451 363.2 167.232 382.014C166.906 387.048 168.696 392.046 172.145 395.726C175.595 399.407 180.468 401.517 185.513 401.517H197.316C199.995 401.517 202.165 399.346 202.165 396.669C202.165 393.991 199.995 391.82 197.316 391.82H185.512C183.101 391.82 180.866 390.852 179.219 389.095C177.573 387.338 176.752 385.046 176.908 382.642C178.021 365.464 184.897 332.796 218.436 307.008C221.095 304.964 224.482 304.628 227.494 306.112C230.509 307.597 232.31 310.49 232.31 313.848V320.273L207.409 338.364C204.554 340.438 202.677 343.501 202.125 346.986C201.573 350.472 202.411 353.964 204.485 356.818C206.559 359.674 209.621 361.55 213.107 362.102C213.807 362.213 214.507 362.268 215.202 362.268C217.969 362.268 220.658 361.4 222.94 359.742L232.309 352.934V383.2C232.309 387.953 228.443 391.819 223.689 391.819H219.943C217.265 391.819 215.095 393.99 215.095 396.668C215.095 399.346 217.265 401.517 219.943 401.517H223.69C233.79 401.517 242.007 393.3 242.007 383.2V345.889L260.901 332.161L279.795 345.889V383.199C279.795 393.299 288.013 401.516 298.113 401.516H336.291C341.337 401.516 346.209 399.405 349.659 395.725C353.108 392.045 354.898 387.047 354.572 382.013C353.704 368.616 349.645 346.63 334.181 324.927H349.113C350.722 324.927 352.226 324.129 353.128 322.798L366.896 302.473C374.597 310.874 379.152 322.015 379.152 333.936V357.644C379.152 360.322 381.323 362.493 384.001 362.493C386.679 362.493 388.85 360.322 388.85 357.644V333.935C388.85 318.732 382.718 304.581 372.457 294.262L394.556 261.639C396.058 259.423 395.478 256.408 393.261 254.906ZM256.289 238.782H265.513C267.296 238.782 268.746 240.232 268.746 242.015C268.746 243.797 267.296 245.247 265.513 245.247H256.289C254.507 245.247 253.057 243.797 253.057 242.015C253.057 240.232 254.507 238.782 256.289 238.782ZM264.416 254.945V259.885H257.386V254.945H264.416ZM256.289 269.582H265.513C267.296 269.582 268.746 271.032 268.746 272.815C268.746 274.597 267.296 276.047 265.513 276.047H256.289C254.507 276.047 253.057 274.597 253.057 272.815C253.057 271.032 254.507 269.582 256.289 269.582ZM264.416 285.744V290.685H257.386V285.744H264.416ZM256.289 300.382H265.513C267.296 300.382 268.746 301.832 268.746 303.614C268.746 305.397 267.296 306.847 265.513 306.847H256.289C254.507 306.847 253.057 305.397 253.057 303.614C253.057 301.832 254.507 300.382 256.289 300.382ZM265.65 323.624C262.811 321.56 258.994 321.56 256.151 323.624L217.24 351.895C216.48 352.447 215.552 352.67 214.625 352.522C213.697 352.375 212.883 351.876 212.331 351.116C211.779 350.357 211.556 349.428 211.703 348.501C211.849 347.574 212.348 346.759 213.108 346.208L254.192 316.359C254.876 316.471 255.573 316.544 256.289 316.544H265.513C266.228 316.544 266.925 316.47 267.609 316.359L308.49 346.06C310.087 347.22 310.578 349.414 309.585 350.949C308.93 351.962 307.821 352.566 306.62 352.566C306.103 352.566 305.326 352.45 304.561 351.894L265.65 323.624ZM344.894 382.639C345.05 385.044 344.229 387.335 342.583 389.093C340.935 390.85 338.701 391.817 336.29 391.817H298.112C293.359 391.817 289.492 387.951 289.492 383.198V352.933L298.862 359.74C301.135 361.391 303.817 362.264 306.62 362.264C311.125 362.264 315.276 360.004 317.727 356.218C321.536 350.331 319.981 342.423 314.189 338.215L289.492 320.271V313.846C289.492 310.487 291.293 307.595 294.308 306.11C295.553 305.497 296.86 305.194 298.154 305.194C299.994 305.194 301.805 305.805 303.366 307.006C336.905 332.793 343.781 365.462 344.894 382.639Z" fill="#480486"/>
<path d="M384.001 375.423C381.323 375.423 379.152 377.594 379.152 380.272V408.196C379.152 409.909 377.759 411.303 376.046 411.303H145.757C144.044 411.303 142.65 409.91 142.65 408.196V333.935C142.65 314.103 155.242 296.422 173.986 289.941L231.558 270.032C236.359 268.372 239.584 263.843 239.584 258.763V223.321C239.584 219.686 237.93 216.279 235.044 213.973C219.538 201.587 210.738 183.112 210.903 163.286C211.192 128.657 238.518 100.738 273.112 99.7246C285.721 99.3555 298.041 102.643 308.701 109.23C314.608 112.881 319.843 117.497 324.26 122.95C325.945 125.031 328.999 125.351 331.08 123.666C333.161 121.98 333.481 118.927 331.795 116.846C326.69 110.544 320.634 105.207 313.798 100.981C301.519 93.3936 287.357 89.6091 272.828 90.0319C233 91.1969 201.539 123.339 201.206 163.205C201.016 186.028 211.144 207.294 228.991 221.549C229.561 222.004 229.887 222.65 229.887 223.322V258.764C229.887 259.713 229.285 260.558 228.389 260.868L222.83 262.79L198.826 219.103C197.974 217.553 196.345 216.589 194.577 216.589H180.934L188.661 208.862C193.481 204.042 196.136 197.633 196.136 190.817C196.136 184 193.483 177.591 188.662 172.771C188.662 172.771 188.662 172.771 188.661 172.771C178.71 162.821 162.521 162.821 152.571 172.771L146.062 179.28L139.552 172.77C129.603 162.82 113.412 162.819 103.461 172.77C98.6405 177.59 95.9861 183.999 95.9861 190.816C95.9861 193.988 96.5679 197.069 97.6682 199.945C96.4535 200.826 95.6602 202.253 95.6602 203.869C95.6602 206.546 97.8305 208.717 100.509 208.717H103.323C103.37 208.764 103.414 208.814 103.461 208.861L141.251 246.652C142.536 247.937 144.244 248.645 146.062 248.645C147.878 248.645 149.586 247.938 150.872 246.652L171.237 226.286H191.707L213.531 266.005L170.817 280.777C148.169 288.609 132.953 309.972 132.953 333.935V408.197C132.953 415.257 138.697 421.001 145.757 421.001H376.047C383.106 421.001 388.85 415.257 388.85 408.197V380.272C388.85 377.594 386.679 375.423 384.001 375.423ZM146.062 237.748L117.031 208.717H124.989L126.78 214.267C127.411 216.226 129.209 217.572 131.266 217.626C131.309 217.627 131.352 217.628 131.394 217.628C133.4 217.628 135.205 216.39 135.924 214.509L138.383 208.069L143.056 220.814C143.758 222.727 145.578 223.994 147.608 223.994C147.64 223.994 147.673 223.994 147.704 223.993C149.773 223.952 151.589 222.603 152.223 220.633L156.168 208.399H160.745C163.423 208.399 165.593 206.228 165.593 203.55C165.593 200.872 163.423 198.701 160.745 198.701H152.636C150.532 198.701 148.668 200.059 148.022 202.062L147.313 204.258L143.026 192.568C142.33 190.669 140.528 189.402 138.506 189.389C138.495 189.389 138.485 189.389 138.474 189.389C136.465 189.389 134.662 190.629 133.944 192.507L131.159 199.8C130.391 199.302 129.479 199.019 128.519 199.019H107.972C106.481 196.57 105.684 193.754 105.684 190.815C105.684 186.588 107.33 182.615 110.318 179.626C113.403 176.541 117.454 174.999 121.507 174.999C125.558 174.999 129.611 176.542 132.696 179.626L142.633 189.564C144.528 191.457 147.597 191.457 149.491 189.564L159.428 179.626C165.597 173.457 175.636 173.457 181.805 179.626C184.793 182.615 186.439 186.589 186.439 190.815C186.439 195.041 184.793 199.015 181.805 202.004L146.062 237.748Z" fill="#480486"/>
<path d="M254.888 167.622H258.057C260.735 167.622 262.905 165.451 262.905 162.773C262.905 160.096 260.735 157.925 258.057 157.925H254.888C243.826 157.925 234.827 166.924 234.827 177.986C234.827 189.048 243.826 198.047 254.888 198.047H258.057C260.735 198.047 262.905 195.876 262.905 193.198C262.905 190.521 260.735 188.35 258.057 188.35H254.888C249.173 188.35 244.525 183.701 244.525 177.986C244.525 172.271 249.173 167.622 254.888 167.622Z" fill="#480486"/>
<path d="M315.368 153.679C312.69 153.679 310.52 155.85 310.52 158.528V165.603C310.52 168.281 312.69 170.452 315.368 170.452C318.047 170.452 320.217 168.281 320.217 165.603V158.528C320.217 155.85 318.047 153.679 315.368 153.679Z" fill="#480486"/>
<path d="M415.339 170.41V138.002C415.339 135.324 413.169 133.153 410.491 133.153C407.812 133.153 405.642 135.324 405.642 138.002V142.917H376.722V138.002C376.722 135.324 374.551 133.153 371.873 133.153C369.195 133.153 367.024 135.324 367.024 138.002V170.41C367.024 178.262 370.775 185.764 377.057 190.475L383.101 195.008L377.057 199.541C370.775 204.252 367.024 211.753 367.024 219.605V251.74C367.024 254.418 369.195 256.589 371.873 256.589C374.551 256.589 376.722 254.418 376.722 251.74V246.484H405.642V251.74C405.642 254.418 407.812 256.589 410.491 256.589C413.169 256.589 415.339 254.418 415.339 251.74V219.605C415.339 211.753 411.589 204.252 405.307 199.541L399.263 195.008L405.307 190.475C411.589 185.763 415.339 178.262 415.339 170.41ZM376.722 152.613H405.642V162.803H376.722V152.613ZM405.642 236.787H376.722V226.597H405.642V236.787ZM399.489 207.299C402.611 209.641 404.713 213.106 405.398 216.9H376.965C377.651 213.106 379.752 209.641 382.875 207.299L391.182 201.068L399.489 207.299ZM399.489 182.717L391.182 188.947L382.876 182.717C379.585 180.249 377.433 176.532 376.872 172.501H405.492C404.932 176.532 402.779 180.249 399.489 182.717Z" fill="#480486"/>
<path d="M308.605 144.722C309.902 143.263 310.514 141.316 310.285 139.383C308.508 124.382 292.92 113.069 274.026 113.069C255.132 113.069 239.545 124.382 237.768 139.382C237.539 141.316 238.152 143.262 239.448 144.722C240.751 146.188 242.622 147.029 244.582 147.029H303.471C305.431 147.029 307.303 146.188 308.605 144.722ZM248.155 137.332C251.169 128.949 261.782 122.767 274.027 122.767C286.27 122.767 296.884 128.949 299.899 137.332H248.155Z" fill="#480486"/>
</svg>
