<svg width="512" height="512" viewBox="0 0 512 512" fill="none" xmlns="http://www.w3.org/2000/svg">
<circle cx="256" cy="256" r="256" fill="#F2EDF8"/>
<path d="M256 0C114.509 0 0 114.497 0 256C0 397.491 114.497 512 256 512C397.491 512 512 397.503 512 256C512 114.509 397.503 0 256 0ZM256 497C123.112 497 14.9999 388.887 14.9999 256C14.9999 123.113 123.112 14.9999 256 14.9999C388.888 14.9999 497 123.113 497 256C497 388.887 388.888 497 256 497V497Z" fill="#480486"/>
<path d="M414.953 96.3032C372.361 53.7119 315.733 30.2563 255.5 30.2563C195.267 30.2563 138.639 53.7119 96.0468 96.3032C53.4564 138.895 30 195.523 30 255.756C30 313.321 51.6903 368.123 91.0744 410.067C130.276 451.816 183.239 476.911 240.205 480.73C240.355 480.739 240.504 480.745 240.653 480.745C244.101 480.745 247.004 478.069 247.238 474.579C247.482 470.939 244.729 467.79 241.088 467.546C187.469 463.952 137.614 440.326 100.707 401.022C63.6312 361.538 43.2129 309.949 43.2129 255.756C43.2129 199.052 65.2943 145.742 105.39 105.646C145.486 65.5506 198.796 43.4692 255.5 43.4692C312.204 43.4692 365.514 65.5506 405.609 105.646C445.706 145.742 467.787 199.052 467.787 255.756C467.787 309.062 447.948 360.028 411.924 399.265C376.12 438.262 327.486 462.369 274.979 467.145C271.346 467.475 268.668 470.689 268.999 474.322C269.329 477.956 272.535 480.63 276.176 480.303C331.96 475.23 383.625 449.623 421.656 408.201C459.925 366.52 481 312.381 481 255.756C481 195.523 457.544 138.895 414.953 96.3032V96.3032Z" fill="#480486"/>
<path d="M355.084 342.321C352.412 341.876 349.901 343.691 349.463 346.355L341.275 396.214H320.084V319.537C336.496 308.794 338.771 295.571 338.615 288.451C338.402 278.756 333.593 269.502 326.92 265.946C320.881 262.727 314.055 264.152 307.454 265.529C300.749 266.927 293.815 268.374 286.575 265.838C277.738 262.747 268.825 264.067 262.121 269.464C255.302 274.953 251.915 283.838 253.061 293.23C253.95 300.512 258.448 307.52 266.441 314.087V396.215H238.345L237.52 285.956C237.411 271.416 225.493 259.587 210.952 259.587H145.785V224.611H176.498C179.2 224.611 181.391 222.421 181.391 219.718C181.391 217.015 179.2 214.825 176.498 214.825H145.785V176.535H233.656C235.51 176.535 237.205 175.487 238.033 173.829C241.537 166.812 247.004 163.254 254.282 163.254C263.759 163.254 266.424 171.792 268.815 190.931C269.308 194.872 269.773 198.595 270.462 202.06C270.991 204.726 271.931 207.878 272.926 211.214C276.94 224.674 279.681 236.069 272.541 239.176C266.536 241.788 254.263 237.248 237.823 216.666C236.895 215.503 235.488 214.827 234 214.827H196.049C193.347 214.827 191.156 217.017 191.156 219.719C191.156 222.422 193.347 224.612 196.049 224.612H231.671C240.475 235.277 254.965 249.707 268.899 249.707C271.445 249.707 273.973 249.225 276.445 248.149C281.356 246.012 287.125 241.009 286.715 229.311C286.474 222.409 284.258 214.976 282.302 208.418C281.375 205.309 280.499 202.371 280.058 200.154C279.439 197.034 278.995 193.481 278.525 189.72C276.614 174.422 273.996 153.471 254.282 153.471C244.309 153.471 236.066 158.16 230.781 166.752H145.785V116.362L258.313 128.909C260.996 129.21 263.418 127.274 263.718 124.589C264.017 121.904 262.083 119.483 259.397 119.184L141.435 106.029C140.054 105.878 138.668 106.318 137.63 107.246C136.593 108.174 136 109.5 136 110.892V264.48C136 267.182 138.191 269.372 140.893 269.372H210.953C220.139 269.372 227.667 276.845 227.736 286.03L228.597 401.144C228.617 403.831 230.802 406 233.49 406H345.43C347.827 406 349.87 404.265 350.258 401.901L359.119 347.943C359.557 345.276 357.75 342.759 355.084 342.321ZM276.227 396.215V311.719C276.227 310.191 275.513 308.751 274.297 307.826C269.471 304.152 263.554 298.432 262.775 292.045C262.041 286.032 264.09 280.44 268.257 277.085C272.328 273.808 277.686 273.094 283.342 275.074C293.15 278.507 302.188 276.622 309.451 275.107C314.795 273.993 319.409 273.031 322.317 274.581V274.581C324.849 275.93 328.671 281.34 328.831 288.665C329.09 300.427 320.203 308.176 312.703 312.606C311.213 313.487 310.299 315.088 310.299 316.819V396.215H276.227Z" fill="#480486"/>
<path d="M295.291 123.185L278.799 121.346C276.118 121.052 273.694 122.982 273.394 125.667C273.095 128.352 275.029 130.772 277.715 131.071L294.207 132.91C313.702 135.084 331.467 144.485 344.228 159.383C356.989 174.28 363.551 193.278 362.705 212.876L359.611 284.564L352.633 327.057C352.194 329.724 354.001 332.24 356.667 332.678C356.935 332.723 357.203 332.744 357.465 332.744C359.819 332.744 361.894 331.041 362.287 328.644L369.313 285.861C369.345 285.668 369.365 285.474 369.374 285.279L372.481 213.297C373.434 191.213 366.04 169.805 351.66 153.017C337.279 136.23 317.26 125.636 295.291 123.185V123.185Z" fill="#480486"/>
<path d="M338.622 206.375C338.622 188.711 329.152 174.874 317.063 174.874C304.974 174.874 295.504 188.711 295.504 206.375C295.504 224.039 304.974 237.875 317.063 237.875C329.152 237.875 338.622 224.039 338.622 206.375ZM305.289 206.375C305.289 193.577 311.494 184.659 317.063 184.659C322.632 184.659 328.837 193.577 328.837 206.375C328.837 219.172 322.632 228.09 317.063 228.09C311.494 228.09 305.289 219.172 305.289 206.375Z" fill="#480486"/>
</svg>
