<svg width="512" height="512" viewBox="0 0 512 512" fill="none" xmlns="http://www.w3.org/2000/svg">
<circle cx="256" cy="256" r="256" fill="#F2EDF8"/>
<path d="M256 0C114.509 0 0 114.497 0 256C0 397.491 114.497 512 256 512C397.491 512 512 397.503 512 256C512 114.509 397.503 0 256 0ZM256 497C123.112 497 14.9999 388.887 14.9999 256C14.9999 123.113 123.112 14.9999 256 14.9999C388.888 14.9999 497 123.113 497 256C497 388.887 388.888 497 256 497V497Z" fill="#480486"/>
<g clip-path="url(#clip0)">
<path d="M414.953 96.3032C372.361 53.7119 315.733 30.2563 255.5 30.2563C195.267 30.2563 138.639 53.7119 96.0468 96.3032C53.4564 138.895 30 195.523 30 255.756C30 313.321 51.6903 368.123 91.0744 410.067C130.276 451.816 183.239 476.911 240.205 480.73C240.355 480.739 240.504 480.745 240.653 480.745C244.101 480.745 247.004 478.069 247.238 474.579C247.482 470.939 244.729 467.79 241.088 467.546C187.469 463.952 137.614 440.326 100.707 401.022C63.6312 361.538 43.2129 309.949 43.2129 255.756C43.2129 199.052 65.2943 145.742 105.39 105.646C145.486 65.5506 198.796 43.4692 255.5 43.4692C312.204 43.4692 365.514 65.5506 405.609 105.646C445.706 145.742 467.787 199.052 467.787 255.756C467.787 309.062 447.948 360.028 411.924 399.265C376.12 438.262 327.486 462.369 274.979 467.145C271.346 467.475 268.668 470.689 268.999 474.322C269.329 477.956 272.535 480.63 276.176 480.303C331.96 475.23 383.625 449.623 421.656 408.201C459.925 366.52 481 312.381 481 255.756C481 195.523 457.544 138.895 414.953 96.3032V96.3032Z" fill="#480486"/>
</g>
<path d="M326.824 189.463L326.381 189.234L326.824 189.463C328.145 186.903 327.142 183.756 324.582 182.434C322.022 181.113 318.875 182.115 317.553 184.676C314.304 190.968 307.898 194.875 300.832 194.875C290.46 194.875 282.021 186.435 282.021 176.064C282.021 165.692 290.46 157.253 300.832 157.253C307.898 157.253 314.304 161.159 317.553 167.451C318.875 170.013 322.023 171.014 324.582 169.693L324.352 169.249L324.582 169.693C327.142 168.371 328.145 165.224 326.824 162.664C321.777 152.892 311.817 146.82 300.832 146.82C284.706 146.82 271.587 159.938 271.587 176.064C271.587 186.188 276.763 195.12 284.599 200.37L277.42 216.917C272.275 215.257 266.797 214.347 261.107 214.347C250.344 214.347 240.317 217.561 231.931 223.072L187.601 168.025C193.945 161.274 197.845 152.198 197.845 142.222C197.845 121.421 180.924 104.5 160.124 104.5C139.323 104.5 122.402 121.422 122.402 142.222C122.402 163.022 139.324 179.944 160.124 179.944C167.198 179.944 173.821 177.983 179.484 174.582L223.816 229.632C213.966 239.303 207.835 252.755 207.835 267.621C207.835 278.751 211.366 289.665 217.825 298.667L182.239 329.9C174.405 322.852 164.049 318.554 152.706 318.554C128.331 318.554 108.5 338.385 108.5 362.761C108.5 387.136 128.331 406.967 152.706 406.967C177.081 406.967 196.912 387.136 196.912 362.761C196.912 353.478 194.027 344.862 189.12 337.743L224.719 306.498C231.499 312.829 239.87 317.355 248.911 319.474L248.911 319.474C251.716 320.13 254.522 318.391 255.18 315.586L255.181 315.586C255.838 312.78 254.097 309.974 251.292 309.316C232.065 304.809 218.269 287.794 218.269 267.621C218.269 244 237.486 224.782 261.107 224.782C284.728 224.782 303.946 244 303.946 267.621C303.946 287.992 289.93 304.859 270.922 309.316C268.118 309.974 266.377 312.78 267.034 315.586L267.469 315.483L267.034 315.586C267.692 318.392 270.5 320.131 273.304 319.474C279.355 318.055 285.102 315.553 290.277 312.161L312.312 339.523C309.854 342.872 308.398 347 308.398 351.463C308.398 362.617 317.471 371.69 328.625 371.69C339.779 371.69 348.852 362.617 348.852 351.463C348.852 340.309 339.779 331.236 328.625 331.236C325.711 331.236 322.939 331.859 320.434 332.974L298.413 305.629C307.59 296.644 312.92 284.912 314.116 272.838H373.484C375.952 286.482 387.91 296.866 402.255 296.866C418.381 296.866 431.5 283.748 431.5 267.621C431.5 251.494 418.381 238.376 402.255 238.376C387.91 238.376 375.952 248.76 373.484 262.404H314.113C312.377 244.625 301.875 229.382 286.99 221.072L294.164 204.537C296.307 205.039 298.538 205.308 300.832 205.308C311.817 205.308 321.777 199.236 326.824 189.463ZM160.124 169.51C145.078 169.51 132.835 157.269 132.835 142.222C132.835 127.176 145.077 114.934 160.124 114.934C175.17 114.934 187.412 127.176 187.412 142.222C187.412 157.269 175.17 169.51 160.124 169.51ZM152.706 396.533C134.085 396.533 118.934 381.382 118.934 362.761C118.934 344.139 134.085 328.988 152.706 328.988C171.328 328.988 186.478 344.139 186.478 362.761C186.478 381.382 171.328 396.533 152.706 396.533ZM328.626 341.669C334.025 341.669 338.419 346.063 338.419 351.462C338.419 356.862 334.025 361.256 328.626 361.256C323.227 361.256 318.833 356.863 318.833 351.462C318.833 346.063 323.226 341.669 328.626 341.669ZM402.255 286.431C391.883 286.431 383.445 277.993 383.445 267.62C383.445 257.248 391.883 248.809 402.255 248.809C412.628 248.809 421.066 257.248 421.066 267.62C421.066 277.992 412.628 286.431 402.255 286.431Z" fill="#480486" stroke="#480486"/>
<defs>
<clipPath id="clip0">
<rect width="451" height="451" fill="white" transform="translate(30 30)"/>
</clipPath>
</defs>
</svg>
