<svg xmlns="http://www.w3.org/2000/svg" width="512" height="512" fill="none" viewBox="0 0 512 512">
  <path fill="#000" d="M424.75 418.5c-15.163 0-27.5-12.337-27.5-27.5s12.337-27.5 27.5-27.5 27.5 12.337 27.5 27.5-12.337 27.5-27.5 27.5Zm-17.5-27.5c0 9.649 7.851 17.5 17.5 17.5 9.649 0 17.5-7.851 17.5-17.5 0-9.649-7.851-17.5-17.5-17.5-9.649 0-17.5 7.851-17.5 17.5Zm-50 27.5c-15.163 0-27.5-12.337-27.5-27.5s12.337-27.5 27.5-27.5c14.997 0 27.229 12.068 27.495 27.003.032.331.032.663 0 .994-.266 14.935-12.498 27.003-27.495 27.003Zm-17.495-27.103c.211 9.467 7.979 17.103 17.495 17.103 9.649 0 17.5-7.851 17.5-17.5 0-9.649-7.851-17.5-17.5-17.5-9.517 0-17.284 7.636-17.495 17.103.02.264.02.53 0 .794ZM289.75 418.5c-15.163 0-27.5-12.337-27.5-27.5s12.337-27.5 27.5-27.5c14.997 0 27.229 12.068 27.495 27.003.032.331.032.663 0 .994-.266 14.935-12.498 27.003-27.495 27.003Zm-17.495-27.103c.211 9.467 7.979 17.103 17.495 17.103 9.649 0 17.5-7.851 17.5-17.5 0-9.649-7.851-17.5-17.5-17.5-9.517 0-17.284 7.636-17.495 17.103.02.264.02.53 0 .794ZM222.25 418.5c-15.164 0-27.5-12.337-27.5-27.5s12.336-27.5 27.5-27.5c14.997 0 27.229 12.068 27.496 27.003.032.331.032.663 0 .994-.267 14.935-12.499 27.003-27.496 27.003Zm-17.495-27.103c.211 9.467 7.979 17.103 17.496 17.103 9.649 0 17.5-7.851 17.5-17.5 0-9.649-7.851-17.5-17.5-17.5-9.517 0-17.284 7.636-17.496 17.103.02.264.02.53 0 .794ZM154.75 418.5c-15.164 0-27.5-12.337-27.5-27.5s12.336-27.5 27.5-27.5 27.5 12.337 27.5 27.5-12.336 27.5-27.5 27.5Zm-17.5-27.5c0 9.649 7.851 17.5 17.5 17.5 9.649 0 17.5-7.851 17.5-17.5 0-9.649-7.851-17.5-17.5-17.5-9.649 0-17.5 7.851-17.5 17.5Zm-50 27.5c-15.164 0-27.5-12.337-27.5-27.5s12.336-27.5 27.5-27.5 27.5 12.337 27.5 27.5-12.336 27.5-27.5 27.5Zm0-45c-9.649 0-17.5 7.851-17.5 17.5 0 9.649 7.851 17.5 17.5 17.5 9.649 0 17.5-7.851 17.5-17.5 0-9.649-7.85-17.5-17.5-17.5Zm270-22.5c-15.163 0-27.5-12.337-27.5-27.5s12.337-27.5 27.5-27.5c14.997 0 27.229 12.068 27.495 27.003.032.331.032.663 0 .994C384.479 338.932 372.247 351 357.25 351Zm-17.495-27.103c.211 9.467 7.979 17.103 17.495 17.103 9.649 0 17.5-7.851 17.5-17.5 0-9.649-7.85-17.5-17.5-17.5-9.517 0-17.284 7.636-17.495 17.103.02.264.02.53 0 .794ZM289.75 351c-15.163 0-27.5-12.337-27.5-27.5s12.337-27.5 27.5-27.5c14.997 0 27.229 12.068 27.495 27.003.032.331.032.663 0 .994C316.979 338.932 304.747 351 289.75 351Zm-17.495-27.103c.211 9.467 7.979 17.103 17.495 17.103 9.649 0 17.5-7.851 17.5-17.5 0-9.649-7.85-17.5-17.5-17.5-9.517 0-17.284 7.636-17.495 17.103.02.264.02.53 0 .794ZM222.25 351c-15.164 0-27.5-12.337-27.5-27.5s12.336-27.5 27.5-27.5c14.997 0 27.229 12.068 27.496 27.003.032.331.032.663 0 .994C249.479 338.932 237.247 351 222.25 351Zm-17.495-27.103c.211 9.467 7.979 17.103 17.496 17.103 9.649 0 17.5-7.851 17.5-17.5 0-9.649-7.851-17.5-17.501-17.5-9.517 0-17.284 7.636-17.496 17.103.02.264.021.53.001.794ZM154.75 351c-15.164 0-27.5-12.337-27.5-27.5s12.336-27.5 27.5-27.5 27.5 12.337 27.5 27.5-12.336 27.5-27.5 27.5Zm-17.5-27.5c0 9.649 7.851 17.5 17.5 17.5 9.649 0 17.5-7.851 17.5-17.5 0-9.649-7.85-17.5-17.5-17.5s-17.5 7.851-17.5 17.5Zm-50 27.5c-15.164 0-27.5-12.337-27.5-27.5S72.087 296 87.25 296s27.5 12.337 27.5 27.5-12.336 27.5-27.5 27.5Zm0-45c-9.649 0-17.5 7.851-17.5 17.5 0 9.649 7.851 17.5 17.5 17.5 9.649 0 17.5-7.851 17.5-17.5 0-9.649-7.85-17.5-17.5-17.5Zm202.5-22.5c-15.163 0-27.5-12.337-27.5-27.5 0-15.164 12.337-27.5 27.5-27.5 14.997 0 27.229 12.068 27.495 27.002.032.331.032.665 0 .996-.266 14.934-12.498 27.002-27.495 27.002Zm-17.495-27.103c.211 9.467 7.979 17.103 17.495 17.103 9.649 0 17.5-7.851 17.5-17.5 0-9.649-7.851-17.5-17.5-17.5-9.517 0-17.284 7.636-17.495 17.103.02.264.02.53 0 .794ZM222.25 283.5c-15.164 0-27.5-12.337-27.5-27.5 0-15.164 12.336-27.5 27.5-27.5 14.997 0 27.229 12.068 27.496 27.002.032.331.032.665 0 .996-.267 14.934-12.499 27.002-27.496 27.002Zm-17.495-27.103c.211 9.467 7.979 17.103 17.496 17.103 9.649 0 17.5-7.851 17.5-17.5 0-9.649-7.851-17.5-17.5-17.5-9.517 0-17.284 7.636-17.496 17.103.02.264.02.53 0 .794ZM154.75 283.5c-15.164 0-27.5-12.337-27.5-27.5 0-15.164 12.336-27.5 27.5-27.5s27.5 12.336 27.5 27.5c0 15.163-12.336 27.5-27.5 27.5Zm-17.5-27.5c0 9.649 7.851 17.5 17.5 17.5 9.649 0 17.5-7.851 17.5-17.5 0-9.649-7.851-17.5-17.5-17.5-9.649 0-17.5 7.851-17.5 17.5Zm-50 27.5c-15.164 0-27.5-12.337-27.5-27.5 0-15.164 12.336-27.5 27.5-27.5s27.5 12.336 27.5 27.5c0 15.163-12.336 27.5-27.5 27.5Zm0-45c-9.649 0-17.5 7.851-17.5 17.5 0 9.649 7.851 17.5 17.5 17.5 9.649 0 17.5-7.851 17.5-17.5 0-9.649-7.85-17.5-17.5-17.5Zm135-22.5c-15.164 0-27.5-12.336-27.5-27.5s12.336-27.5 27.5-27.5c14.997 0 27.229 12.068 27.496 27.002.032.331.032.665 0 .996C249.479 203.932 237.247 216 222.25 216Zm-17.495-27.103c.211 9.467 7.979 17.103 17.496 17.103 9.649 0 17.5-7.851 17.5-17.5 0-9.649-7.851-17.5-17.501-17.5-9.517 0-17.284 7.636-17.496 17.103.02.264.021.53.001.794ZM154.75 216c-15.164 0-27.5-12.336-27.5-27.5s12.336-27.5 27.5-27.5 27.5 12.336 27.5 27.5-12.336 27.5-27.5 27.5Zm-17.5-27.5c0 9.649 7.851 17.5 17.5 17.5 9.649 0 17.5-7.851 17.5-17.5 0-9.649-7.85-17.5-17.5-17.5s-17.5 7.851-17.5 17.5Zm17.5-40c-15.164 0-27.5-12.336-27.5-27.5s12.336-27.5 27.5-27.5 27.5 12.336 27.5 27.5-12.336 27.5-27.5 27.5Zm-17.5-27.5c0 9.649 7.851 17.5 17.5 17.5 9.649 0 17.5-7.851 17.5-17.5 0-9.649-7.851-17.5-17.5-17.5-9.649 0-17.5 7.851-17.5 17.5Z"/>
</svg>
