<svg xmlns="http://www.w3.org/2000/svg" width="512" height="512" fill="none" viewBox="0 0 512 512">
  <path fill="#000" d="M256 463.5a5.004 5.004 0 0 1-3.536-1.464A5.004 5.004 0 0 1 251 458.5v-405a5.002 5.002 0 0 1 5-5 5.002 5.002 0 0 1 5 5v405a5.004 5.004 0 0 1-1.464 3.536A5.004 5.004 0 0 1 256 463.5Zm31.5-36a5.004 5.004 0 0 1-3.536-1.464 5.004 5.004 0 0 1-1.464-3.536v-135c0-1.326.527-2.598 1.464-3.536a5.004 5.004 0 0 1 3.536-1.464h135a5 5 0 0 1 5 5 5 5 0 0 1-5 5h-130v130a5.004 5.004 0 0 1-1.464 3.536 5.004 5.004 0 0 1-3.536 1.464Zm-63 0a5.004 5.004 0 0 1-3.536-1.464 5.004 5.004 0 0 1-1.464-3.536v-130h-130a5.002 5.002 0 0 1-5-5 5.002 5.002 0 0 1 5-5h135c1.326 0 2.598.527 3.536 1.464a5.004 5.004 0 0 1 1.464 3.536v135a5.004 5.004 0 0 1-1.464 3.536 5.004 5.004 0 0 1-3.536 1.464ZM319 405a5.004 5.004 0 0 1-3.536-1.464A5.004 5.004 0 0 1 314 400v-76.5c0-1.326.527-2.598 1.464-3.536A5.004 5.004 0 0 1 319 318.5h76.5a5 5 0 0 1 5 5 5 5 0 0 1-5 5H324V400a5.004 5.004 0 0 1-1.464 3.536A5.004 5.004 0 0 1 319 405Zm-130.5-4.5a5.004 5.004 0 0 1-3.536-1.464 5.004 5.004 0 0 1-1.464-3.536V324H112a5.005 5.005 0 0 1-3.536-1.464 5.005 5.005 0 0 1 0-7.072A5.005 5.005 0 0 1 112 314h76.5c1.326 0 2.598.527 3.536 1.464A5.004 5.004 0 0 1 193.5 319v76.5a5.004 5.004 0 0 1-1.464 3.536 5.004 5.004 0 0 1-3.536 1.464Zm270-139.5H287.504a5.004 5.004 0 0 1-3.536-1.464 5.004 5.004 0 0 1 0-7.072 5.004 5.004 0 0 1 3.536-1.464H458.5c1.326 0 2.598.527 3.536 1.464a5.004 5.004 0 0 1 0 7.072A5.004 5.004 0 0 1 458.5 261Zm-234.004 0H53.5a5.002 5.002 0 0 1-5-5 5.002 5.002 0 0 1 5-5h170.996c1.326 0 2.598.527 3.536 1.464a5.004 5.004 0 0 1 0 7.072 5.004 5.004 0 0 1-3.536 1.464ZM422.5 229.5h-135a5.004 5.004 0 0 1-3.536-1.464 5.004 5.004 0 0 1-1.464-3.536v-135a5.002 5.002 0 0 1 5-5 5.002 5.002 0 0 1 5 5v130h130c1.326 0 2.598.527 3.536 1.464a5.004 5.004 0 0 1 0 7.072 5.004 5.004 0 0 1-3.536 1.464Zm-198 0h-135a5.002 5.002 0 0 1-5-5 5.002 5.002 0 0 1 5-5h130v-130a5.002 5.002 0 0 1 5-5 5.002 5.002 0 0 1 5 5v135a5.004 5.004 0 0 1-1.464 3.536 5.004 5.004 0 0 1-3.536 1.464ZM400 198h-76.5a5.004 5.004 0 0 1-3.536-1.464A5.004 5.004 0 0 1 318.5 193v-76.5c0-1.326.527-2.598 1.464-3.536a5.004 5.004 0 0 1 7.072 0 5.004 5.004 0 0 1 1.464 3.536V188H400c1.326 0 2.598.527 3.536 1.464a5.004 5.004 0 0 1 0 7.072A5.004 5.004 0 0 1 400 198Zm-207-4.5h-76.5a5.004 5.004 0 0 1-3.536-1.464 5.004 5.004 0 0 1 0-7.072 5.004 5.004 0 0 1 3.536-1.464H188V112c0-1.326.527-2.598 1.464-3.536a5.004 5.004 0 0 1 7.072 0A5.004 5.004 0 0 1 198 112v76.5a5.004 5.004 0 0 1-1.464 3.536A5.004 5.004 0 0 1 193 193.5Z"/>
</svg>
