<svg xmlns="http://www.w3.org/2000/svg" width="512" height="512" fill="none" viewBox="0 0 512 512">
  <path fill="#000" d="M255.996 465.747a4.995 4.995 0 0 1-2.366-.592l-175.5-94.5a4.999 4.999 0 0 1-2.629-4.402V159.342c0-1.708.849-3.405 2.379-4.347l175.5-108a4.997 4.997 0 0 1 5.241 0l175.5 108a5.053 5.053 0 0 1 2.38 4.347v206.911c0 1.84-1.01 3.53-2.63 4.402L258.437 465.12a5.032 5.032 0 0 1-2.441.627ZM261 256.739v195.643l48.5-26.115V230.624L261 256.739ZM85.5 363.267 251 452.382v-60.916a4.959 4.959 0 0 1-1.488-.584L85.5 294.013v69.254Zm234-138.028v195.643l48.5-26.115V199.124l-48.5 26.115Zm58.5-31.5v195.643l48.5-26.115V167.624L378 193.739Zm-292.5 88.66L251 380.147v-55.965L85.5 226.51v55.889Zm0-67.501L251 312.57v-55.831L85.5 167.624v47.274Zm122.358 7.253L256 248.074l165.49-89.11-48.601-29.908-165.031 93.095Zm-58.679-31.596 48.265 25.989 165.711-93.479-48.71-29.976-165.266 97.466ZM90.51 158.964l48.378 26.05 165.923-97.853L256 57.124 90.51 158.964Z"/>
</svg>
